<svg xmlns="http://www.w3.org/2000/svg" xmlns:xlink="http://www.w3.org/1999/xlink" version="1.1" x="0px" y="0px" viewBox="0 0 100 125" style="enable-background:new 0 0 100 100;" xml:space="preserve"><path d="M93.5,64c-3,0-5.1,0.8-7.6,1.8c-3.4,1.3-7.9,3.1-17.4,3.5c0.6-1,0.9-2.1,0.9-3.4c0-3-2.1-5.6-4.9-6.3c0.7-1,1.1-2.3,1.1-3.7  c0-2-0.9-3.8-2.4-5c1.4-1.2,2.4-3,2.4-5c0-1-0.2-1.9-0.6-2.7l2.2,0.5c3.7,5.4,8.3,6.1,10.5,6.1c0.7,0,1.2-0.1,1.2-0.1  c0.8-0.1,1.3-0.9,1.2-1.7c-0.1-0.8-0.9-1.4-1.7-1.2c-0.2,0-5.2,0.8-9-5.2c-0.2-0.3-0.5-0.6-0.9-0.6l-8.9-2c-0.7-0.2-1.4,0.2-1.7,0.8  c-2.9,6.3-5.8,5.5-9.4,4.5l3.8-7.1c0,0,0-0.1,0.1-0.1c0.2-0.4,0.3-0.9,0.5-1.5c0.6-1.7,1.4-4,2.9-4.7c1.4-0.7,2.9-0.4,5.3,0.1  c1.2,0.2,2.5,0.5,4,0.7c3,0.6,6.1,1.8,9.4,3.1c5.4,2.2,11.6,4.6,18.9,4.9c0.8,0,1.5-0.6,1.6-1.4c0-0.8-0.6-1.5-1.4-1.6  c-6.8-0.3-12.5-2.6-18-4.7c-3.5-1.4-6.7-2.7-10-3.3c0,0-0.1,0-0.1,0c-1.4-0.2-2.7-0.4-3.8-0.6c-2.6-0.5-4.9-1-7.2,0.1  c-0.7,0.3-1.3,0.8-1.8,1.4h-9.2c-3.6,0-6.5,2.9-6.5,6.5c0,1.4,0.4,2.7,1.2,3.7c-2.7,0.8-4.8,3.3-4.8,6.2c0,3,2.1,5.6,4.9,6.3  c-0.7,1-1.1,2.3-1.1,3.7c0,3,2.1,5.6,4.9,6.3c-0.7,1-1.1,2.3-1.1,3.7c0,3.6,2.9,6.5,6.5,6.5l16.7,0c13.1,0,18.7-2.2,22.8-3.8  c2.4-0.9,4.1-1.6,6.5-1.6c0.8,0,1.5-0.7,1.5-1.5S94.3,64,93.5,64z M43.5,32.6h7.4c-0.3,0.7-0.6,1.5-0.8,2.1  c-0.2,0.5-0.3,0.9-0.4,1.2l-2,3.7h-4.2c-1.9,0-3.5-1.6-3.5-3.5C40.1,34.2,41.6,32.6,43.5,32.6z M36.5,46.1c0-1.9,1.6-3.5,3.5-3.5  h6.2l-1.1,2c-0.2,0.4-0.2,0.9,0,1.3c0.2,0.4,0.6,0.7,1,0.8c0.5,0.1,1,0.3,1.6,0.4c3.6,1,8.3,2.4,12.3-4.6c1.6,0.3,2.8,1.7,2.8,3.4  c0,1.9-1.6,3.5-3.5,3.5c-0.2,0-0.3,0-0.5,0.1l-18.8,0C38.1,49.5,36.5,48,36.5,46.1z M40.3,56c0-1.9,1.5-3.4,3.4-3.5l16,0  c1.7,0.2,3,1.7,3,3.4c0,1.9-1.6,3.5-3.5,3.5H43.8C41.8,59.5,40.3,57.9,40.3,56z M44.1,66c0-1.9,1.6-3.5,3.5-3.5H63  c1.9,0,3.5,1.6,3.5,3.5c0,1.8-1.4,3.3-3.2,3.4l-15.8,0C45.6,69.4,44.1,67.9,44.1,66z"/><text x="0" y="115" fill="#000000" font-size="5px" font-weight="bold" font-family="'Helvetica Neue', Helvetica, Arial-Unicode, Arial, Sans-serif">Created by Till Teenck</text><text x="0" y="120" fill="#000000" font-size="5px" font-weight="bold" font-family="'Helvetica Neue', Helvetica, Arial-Unicode, Arial, Sans-serif">from the Noun Project</text></svg>